HIERARCHY
ROOT pelvis
{
  OFFSET 0 100 0
  CHANNELS 6 Xposition Yposition Zposition Zrotation Xrotation Yrotation
  JOINT pelvis_right_femur
  {
    OFFSET -10.78128 -3.44521 -0.5502486
    CHANNELS 3 Zrotation Xrotation Yrotation
    JOINT right_femur_tibia
    {
      OFFSET -0.8047443 -44.0398 -0.1307829
      CHANNELS 3 Zrotation Xrotation Yrotation
      JOINT right_tibia_foot
      {
        OFFSET 3.006224 -47.83518 -5
        CHANNELS 3 Zrotation Xrotation Yrotation
        End Site
        {
          OFFSET 0 -5 15
        }
      }
    }
  }
  JOINT pelvis_left_femur
  {
    OFFSET 10.78128 -3.44521 -0.5502486
    CHANNELS 3 Zrotation Xrotation Yrotation
    JOINT left_femur_tibia
    {
      OFFSET 0.8047443 -44.0398 -0.1307829
      CHANNELS 3 Zrotation Xrotation Yrotation
      JOINT left_tibia_foot
      {
        OFFSET -4.370144 -48.10324 -4.275266
        CHANNELS 3 Zrotation Xrotation Yrotation
        End Site
        {
          OFFSET 0 -5 15
        }
      }
    }
  }
  JOINT pelvis_spine1
  {
    OFFSET 0 6.468898 -3.129235
    CHANNELS 3 Zrotation Xrotation Yrotation
    JOINT spine1
    {
      OFFSET 0 23.15396 4.99043
      CHANNELS 3 Zrotation Xrotation Yrotation
      JOINT spine2
      {
        OFFSET 0 20.79997 -5.064912
        CHANNELS 3 Zrotation Xrotation Yrotation
        JOINT neck
        {
          OFFSET 0 14.38658 9.616178
          CHANNELS 3 Zrotation Xrotation Yrotation
          End Site
          {
            OFFSET 0 20 0
          }
        }
      }
      JOINT right_manubrium
      {
        OFFSET -5.722621 16.35077 3.967754
        CHANNELS 3 Zrotation Xrotation Yrotation
        JOINT right_clavicle
        {
          OFFSET -13.16364 1.694482 -4.693211
          CHANNELS 3 Zrotation Xrotation Yrotation
          JOINT right_humerus
          {
            OFFSET -28.5034 -0.3100689 -2.792744
            CHANNELS 3 Zrotation Xrotation Yrotation
            JOINT right_radius
            {
              OFFSET -25.15693 0.02248979 -1.271978
              CHANNELS 3 Zrotation Xrotation Yrotation
              End Site
              {
                OFFSET -15 0 0
              }
            }
          }
        }
      }
      JOINT left_manubrium
      {
        OFFSET 5.722621 16.35077 3.967754
        CHANNELS 3 Zrotation Xrotation Yrotation
        JOINT left_clavicle
        {
          OFFSET 13.16364 1.694482 -4.693211
          CHANNELS 3 Zrotation Xrotation Yrotation
          JOINT left_humerus
          {
            OFFSET 29.39168 -1.063119 -2.237045
            CHANNELS 3 Zrotation Xrotation Yrotation
            JOINT left_radius
            {
              OFFSET 24.59957 -0.9528479 0.9047498
              CHANNELS 3 Zrotation Xrotation Yrotation
              End Site
              {
                OFFSET 15 -0 -0
              }
            }
          }
        }
      }
    }
  }
}
MOTION
Frames: 13
Frame Time: 0.0416666666667
186.1576 93.43494 2942.229 0.857338 -5.201939 16.98889 6.299046 -9.382246 5.251958 -0 16.82605 -0 -5.707589 -7.913655 -5.667612 -2.601583 2.873705 -8.443603 -0 56.60794 -0 -7.909819 -6.224497 14.02827 -0.7599227 1.032133 4.016385 2.554976 9.11156 -6.580041 2.071238 23.13056 4.979547 2.516637 -19.50284 6.689476 4.299151 -13.82439 11.29048 86.95799 29.113 -18.41974 -0 0 7.811323 -14.39598 11.26081 7.500878 3.746108 -19.06298 -3.329243 -87.73809 25.45755 12.47461 0 0 -17.32609 2.317529 9.859966 10.48656
187.5892 94.48819 2947.845 1.709237 -5.961923 16.21944 5.66576 -3.714502 5.02688 -0 15.24933 -0 -5.354621 -9.203962 -5.181092 -2.407681 -3.566421 -7.445805 -0 58.16922 -0 -7.691345 -5.90268 15.33167 -1.154979 1.428272 5.150658 2.074727 9.458411 -5.741247 2.168132 23.52497 4.731578 2.474349 -18.8033 6.479496 3.953153 -14.85976 11.48624 85.79668 28.51292 -16.23541 -0 0 9.662842 -15.58964 11.07292 8.340198 3.774275 -18.73623 -3.127517 -88.86788 25.13039 14.14348 0 0 -16.17608 1.887871 9.467602 10.75584
189.0126 95.14848 2953.267 2.340519 -6.355612 15.50897 5.072719 1.600292 4.727145 -0 13.33573 -0 -4.957479 -10.51175 -4.532506 -1.854336 -10.12428 -6.379993 -0 55.38524 -0 -7.176353 -6.13205 16.74148 -1.512482 1.716933 6.097497 1.541131 9.648324 -4.930934 2.163104 23.77901 4.593297 2.413699 -18.26218 6.310064 3.408952 -16.12344 11.6163 84.48589 28.01846 -13.71303 -0 0 11.96834 -16.94689 10.77929 9.382764 4.012645 -18.37686 -2.854711 -89.97904 24.67073 15.97057 0 0 -15.13281 1.587279 9.120535 10.91268
190.482 95.26127 2958.568 2.602039 -6.389003 14.85096 4.651787 6.31543 4.393951 -0 11.50843 -0 -4.473068 -11.96468 -3.711725 -0.9009289 -16.1971 -5.264579 -0 48.80041 -0 -6.550324 -6.521666 18.07675 -1.673709 1.859019 6.765726 1.011651 9.676447 -4.236329 2.040407 23.83243 4.594151 2.336286 -17.91069 6.187822 2.736157 -17.53817 11.66404 83.09208 27.61079 -11.03362 -0 0 14.6143 -18.38243 10.41848 10.5773 4.341737 -17.94961 -2.576719 -90.99921 24.15601 17.92835 0 0 -14.21512 1.32774 8.790806 11.13469
192.0607 94.78649 2963.858 2.476213 -6.143913 14.21119 4.402555 10.30223 4.04419 -0 10.21836 -0 -3.848073 -13.61345 -2.770353 0.3127145 -21.23394 -4.185149 -0 39.71124 -0 -6.009794 -6.835635 19.14372 -1.58368 1.843083 7.155965 0.5302088 9.532989 -3.693681 1.845604 23.69136 4.70269 2.239291 -17.71307 6.121747 2.01849 -18.97436 11.60073 81.71099 27.17952 -8.406585 -0 0 17.42545 -19.80021 10.02587 11.82808 4.641362 -17.41789 -2.338688 -91.88236 23.70651 19.91446 0 0 -13.36225 0.9871553 8.461441 11.58202
193.807 93.81557 2969.265 2.081615 -5.73131 13.56169 4.199649 13.5314 3.709274 -0 9.924172 -0 -3.055549 -15.22368 -1.802563 1.44827 -24.84775 -3.342713 -0 30.06551 -0 -5.667584 -6.988141 19.80109 -1.321918 1.663382 7.353422 0.125658 9.244615 -3.302203 1.660479 23.41064 4.858759 2.141486 -17.62702 6.120226 1.364456 -20.257 11.41684 80.47841 26.64565 -6.089178 -0 0 20.11909 -21.11552 9.639638 13.01459 4.82217 -16.77923 -2.157221 -92.61489 23.40956 21.78551 0 0 -12.44779 0.5086469 8.123779 12.29118
195.7642 92.55822 2974.926 1.650794 -5.288398 12.90778 3.848196 16.04804 3.457683 -0 11.07461 -0 -2.133467 -16.20974 -0.9536228 2.063657 -26.86298 -2.997062 -0 22.02187 -0 -5.512527 -7.015361 20.03134 -1.075531 1.318644 7.483079 -0.2002305 8.904736 -3.03294 1.574019 23.07178 4.994717 2.079573 -17.61901 6.184713 0.8723561 -21.2046 11.14019 79.57873 25.99349 -4.358762 -0 0 22.33248 -22.27044 9.299388 14.00584 4.844549 -16.0826 -2.038069 -93.20141 23.27191 23.39382 0 0 -11.33973 -0.06503004 7.783136 13.15805
197.9525 91.29855 2980.946 1.441219 -4.968236 12.30122 3.191582 17.89367 3.379618 -0 14.06971 -0 -1.199772 -15.84187 -0.4087458 1.820705 -27.29218 -3.323655 -0 17.20416 -0 -5.438815 -7.030906 19.94411 -1.047173 0.8329122 7.638162 -0.4738333 8.655609 -2.841865 1.643786 22.75212 5.059888 2.085168 -17.6641 6.306732 0.5966531 -21.69205 10.83493 79.20404 25.26443 -3.429018 -0 0 23.73762 -23.21518 9.041999 14.68278 4.717905 -15.41307 -1.995304 -93.65244 23.22835 24.63925 0 0 -9.979406 -0.6239015 7.462631 14.00607
200.3592 90.3314 2987.352 1.6151 -4.901659 11.8409 2.21534 18.99499 3.526447 -0 19.15726 -0 -0.4081386 -13.6559 -0.3254959 0.6742712 -26.26397 -4.288293 -0 16.04737 -0 -5.316522 -7.177272 19.70029 -1.346213 0.2786776 7.820385 -0.7317544 8.623833 -2.693437 1.860803 22.50364 5.046628 2.161637 -17.74007 6.470715 0.5425935 -21.69793 10.58009 79.47265 24.54706 -3.363624 -0 0 24.16348 -23.88191 8.895365 14.97092 4.485056 -14.8653 -2.053345 -93.95892 23.19936 25.47773 0 0 -8.464507 -1.049539 7.194991 14.67697
202.9309 89.89254 2994.055 2.163866 -5.15219 11.65573 1.083616 19.11125 3.837817 -0 26.25467 -0 0.1265849 -9.794752 -0.74296 -1.096091 -23.9576 -5.643679 -0 17.65486 -0 -5.054234 -7.580455 19.42165 -1.929558 -0.2208075 7.92818 -0.993375 8.85166 -2.585368 2.143314 22.35788 4.999811 2.277264 -17.81665 6.659715 0.6780304 -21.30436 10.43671 80.36599 23.95796 -4.051887 -0 0 23.63824 -24.19521 8.866476 14.87148 4.204139 -14.52578 -2.234692 -94.05971 23.15489 25.86485 0 0 -7.078733 -1.259253 7.012077 15.08209
205.5782 90.09459 3000.854 2.920465 -5.695767 11.86074 0.07882614 17.90883 4.124335 -0 34.76814 -0 0.3486951 -5.035464 -1.554347 -3.019977 -20.57567 -7.045709 -0 20.26201 -0 -4.62604 -8.310623 19.1506 -2.621011 -0.5223386 7.799921 -1.240607 9.271791 -2.558426 2.371312 22.34536 4.996767 2.378991 -17.85033 6.860124 0.9398346 -20.65356 10.41911 81.73231 23.59952 -5.264952 -0 0 22.34039 -24.12453 8.92766 14.47394 3.935735 -14.46224 -2.5486 -93.83775 23.13436 25.69447 0 0 -6.215708 -1.222785 6.944034 15.20278
208.1971 90.88747 3007.494 3.641651 -6.435973 12.49826 -0.5400078 15.12688 4.156377 -0 43.53291 -0 0.2211068 -0.4769779 -2.564579 -4.633032 -16.34066 -8.199811 -0 22.06067 -0 -4.067649 -9.35802 18.86487 -3.189278 -0.5220546 7.290677 -1.417246 9.742187 -2.684072 2.445905 22.49813 5.105205 2.418767 -17.79877 7.063036 1.234069 -19.89063 10.48647 83.34978 23.50498 -6.758037 -0 0 20.51303 -23.73492 9.018616 13.93501 3.73382 -14.71307 -2.988791 -93.16581 23.20583 24.80722 0 0 -6.221323 -0.9584647 7.02385 15.0662
210.6974 92.06701 3013.756 4.109629 -7.235917 13.4996 -0.6803749 10.73101 3.812595 -0 50.96886 -0 -0.2861538 2.918766 -3.57768 -5.632596 -11.49725 -8.954095 -0 21.98984 -0 -3.463205 -10.64053 18.5084 -3.444578 -0.2159628 6.351644 -1.450005 10.11854 -3.034347 2.340002 22.81897 5.3422 2.378482 -17.65348 7.261379 1.450966 -19.12137 10.56376 85.0016 23.60239 -8.365133 -0 0 18.40437 -23.18286 9.078952 13.41895 3.638455 -15.27805 -3.535108 -91.98714 23.39414 23.08771 0 0 -7.238515 -0.5189125 7.285365 14.72008
